<?xml version="1.0" encoding="UTF-8"?>
<!DOCTYPE svg PUBLIC "-//W3C//DTD SVG 1.1//EN" "http://www.w3.org/Graphics/SVG/1.1/DTD/svg11.dtd">
<svg xmlns="http://www.w3.org/2000/svg" version="1.1" width="512px" height="512px" style="shape-rendering:geometricPrecision; text-rendering:geometricPrecision; image-rendering:optimizeQuality; fill-rule:evenodd; clip-rule:evenodd" xmlns:xlink="http://www.w3.org/1999/xlink">
<g><path style="opacity:0.992" fill="#f34336" d="M 84.5,-0.5 C 148.167,-0.5 211.833,-0.5 275.5,-0.5C 300.698,6.20489 315.198,22.5382 319,48.5C 319.5,89.1653 319.667,129.832 319.5,170.5C 318.188,178.068 318.188,185.735 319.5,193.5C 319.5,278.833 319.5,364.167 319.5,449.5C 317.692,449.509 316.025,449.009 314.5,448C 224.833,447.333 135.167,447.333 45.5,448C 43.8455,448.608 42.1789,449.108 40.5,449.5C 40.3333,316.5 40.5,183.5 41,50.5C 43.8736,23.4676 58.3736,6.46762 84.5,-0.5 Z"/></g>
<g><path style="opacity:0.95" fill="#455963" d="M 319.5,193.5 C 318.188,185.735 318.188,178.068 319.5,170.5C 340.256,174.431 355.423,185.764 365,204.5C 375.05,226.035 380.717,248.701 382,272.5C 382.605,282.995 383.105,293.495 383.5,304C 382.46,331.514 381.127,359.014 379.5,386.5C 378.77,402.684 381.937,418.017 389,432.5C 402.622,446.031 418.789,450.197 437.5,445C 447.73,440.43 453.896,432.596 456,421.5C 459.878,402.63 460.545,383.63 458,364.5C 454.052,335.198 450.385,305.864 447,276.5C 446.667,253.167 446.333,229.833 446,206.5C 427.838,189.68 414.505,169.68 406,146.5C 402.121,127.141 406.954,110.308 420.5,96C 409.662,87.7423 397.995,80.7423 385.5,75C 372.074,69.8578 358.407,65.5244 344.5,62C 338.333,56.3288 338,50.3288 343.5,44C 345.866,42.767 348.366,41.9336 351,41.5C 402.644,52.8784 444.644,79.2118 477,120.5C 489.459,137.239 493.792,155.905 490,176.5C 486.721,189.402 479.721,199.735 469,207.5C 468.333,228.833 468.333,250.167 469,271.5C 473.164,304.812 477.164,338.145 481,371.5C 482.045,388.245 481.379,404.912 479,421.5C 471.667,457.255 449.834,473.089 413.5,469C 383.678,464.844 365.844,448.01 360,418.5C 359.114,413.53 358.448,408.53 358,403.5C 358.062,371.652 358.895,339.819 360.5,308C 361.377,282.399 358.544,257.233 352,232.5C 348.49,218.67 341.323,207.17 330.5,198C 327.029,195.928 323.362,194.428 319.5,193.5 Z M 436.5,110.5 C 448.996,121.177 459.163,133.844 467,148.5C 468.478,156.111 468.812,163.778 468,171.5C 465.919,177.327 462.586,182.327 458,186.5C 444.751,173.669 434.751,158.669 428,141.5C 426.129,136.155 426.129,130.821 428,125.5C 430.256,120.101 433.09,115.101 436.5,110.5 Z"/></g>
<g><path style="opacity:1" fill="#cfd7db" d="M 90.5,42.5 C 150.917,42.0077 211.25,42.5077 271.5,44C 273.894,45.9522 275.394,48.4522 276,51.5C 276.667,94.8333 276.667,138.167 276,181.5C 275.285,186.105 272.785,189.271 268.5,191C 209.833,191.667 151.167,191.667 92.5,191C 89.3749,190.021 86.8749,188.187 85,185.5C 84.3333,139.833 84.3333,94.1667 85,48.5C 86.3597,45.9774 88.193,43.9774 90.5,42.5 Z"/></g>
<g><path style="opacity:0.995" fill="#455963" d="M 319.5,449.5 C 330.794,453.632 337.627,461.632 340,473.5C 340.667,483.5 340.667,493.5 340,503.5C 338.896,506.721 337.063,509.388 334.5,511.5C 231.5,511.5 128.5,511.5 25.5,511.5C 22.9374,509.388 21.104,506.721 20,503.5C 18.8544,491.037 19.5211,478.704 22,466.5C 25.8022,458.195 31.9688,452.529 40.5,449.5C 42.1789,449.108 43.8455,448.608 45.5,448C 135.167,447.333 224.833,447.333 314.5,448C 316.025,449.009 317.692,449.509 319.5,449.5 Z"/></g>
</svg>
